<svg width="379" height="93" viewBox="0 0 379 93" fill="none" xmlns="http://www.w3.org/2000/svg">
<path fill-rule="evenodd" clip-rule="evenodd" d="M161.223 43.9842C161.4 43.866 161.551 43.7997 161.688 43.7397C161.863 43.6629 162.014 43.5966 162.165 43.4453C167.277 38.4604 167.815 30.3769 163.375 24.8531C160.416 21.0808 156.38 19.1946 151.806 19.0599C147.227 18.97 142.589 19.0001 137.97 19.03C135.668 19.045 133.371 19.0599 131.089 19.0599C130.968 19.0599 130.848 19.0871 130.714 19.1171C130.551 19.1538 130.37 19.1946 130.148 19.1946V40.0771C125.036 40.0771 121 44.1189 121 49.2385H130.148V71.0641H152.075C153.69 71.0641 155.304 70.7946 156.784 70.3904C167.546 67.5612 170.505 56.7831 166.739 49.3732C165.528 47.2176 163.779 45.4661 161.223 43.9842ZM140.372 28.7601C141.637 28.7601 142.888 28.7297 144.128 28.6995H144.128H144.128H144.128H144.128H144.128H144.128H144.128C146.579 28.6399 148.991 28.5812 151.403 28.7601C154.497 29.0296 156.111 31.3199 155.977 34.5534C155.977 37.3826 154.093 39.6729 151.268 39.9424C148.847 40.122 146.425 40.0621 144.004 40.0023C142.793 39.9723 141.582 39.9424 140.372 39.9424V28.7601ZM140.372 61.4985H151.941C155.573 61.4985 158.129 59.0735 158.129 55.3011C158.129 51.6635 155.708 49.2385 151.941 49.2385H141.448C141.246 49.2385 141.078 49.2721 140.91 49.3058L140.91 49.3058C140.742 49.3395 140.573 49.3732 140.372 49.3732V61.4985ZM301.936 44.3883C304.761 37.1131 310.681 33.3408 318.483 32.9366C329.111 32.3977 337.182 39.134 338.527 49.5079C338.706 50.9402 338.647 52.432 338.588 53.9438C338.558 54.7072 338.527 55.4757 338.527 56.2442H310.277C311.084 59.3429 312.967 61.3638 315.793 62.4416C319.425 63.7889 325.209 64.0583 329.111 59.6124C329.96 60.1051 330.795 60.5978 331.63 61.0905L331.631 61.0911L331.632 61.0918L331.633 61.0924L331.634 61.0931L331.635 61.0937L331.637 61.0943C333.311 62.0823 334.985 63.0703 336.778 64.0583C335.702 65.8097 334.222 67.157 332.608 68.3695C329.245 70.9293 325.344 71.8724 321.174 72.0071C314.851 72.1419 309.066 70.3904 304.896 65.4056C299.65 59.0735 298.977 51.7983 301.936 44.3883ZM319.694 41.5591C314.851 41.5591 310.815 44.7925 310.412 48.969H328.976C328.572 44.6578 324.537 41.5591 319.694 41.5591ZM285.793 33.745C291.443 35.4964 294.269 39.9424 294.807 45.7356C295.129 48.9648 295.108 52.1939 295.087 55.4918C295.081 56.3217 295.076 57.156 295.076 57.9956V71.1988H285.39V49.3732C285.39 47.0829 284.717 44.9272 282.834 43.4453C278.798 40.0771 271.937 42.2327 270.458 47.3523C270.054 48.5648 269.919 49.9121 269.919 51.2594V71.1988H260.368V34.0144H269.919V37.652H270.323C274.628 32.6672 280.009 31.9936 285.793 33.745ZM225.526 35.6312V53.1455C225.526 54.4928 225.526 55.7053 225.257 57.0526C224.181 62.5763 217.589 65.1361 213.015 61.9027C210.863 60.4207 210.19 58.1304 210.056 55.7053V34.0144H200.639C200.639 34.237 200.598 34.4186 200.562 34.5819L200.561 34.582C200.532 34.7154 200.504 34.8364 200.504 34.9575C200.504 36.9068 200.496 38.8645 200.488 40.8264V40.8268C200.462 46.7293 200.437 52.6699 200.639 58.5345C201.043 67.8306 208.172 73.4891 217.858 71.8724C220.952 71.3335 223.374 69.8515 225.661 67.0223V71.0641H235.212V34.0144H225.661L225.526 35.6312ZM359.513 33.745C367.988 30.9158 378.481 34.6881 378.885 46.9481C379.101 53.1111 378.97 59.3608 378.841 65.558C378.809 67.0829 378.777 68.6046 378.75 70.121V71.0641H369.334V50.0468C369.334 48.6996 369.065 47.2176 368.661 46.005C367.45 42.9064 364.76 41.5591 360.858 41.8285C357.495 42.098 354.939 44.1189 354.132 47.487C353.863 48.969 353.729 50.451 353.729 51.933V71.1988H344.312V34.0144H353.729V38.0562C355.477 35.9006 357.226 34.5534 359.513 33.745ZM243.014 43.3105V71.0641H252.431V34.0144C247.319 34.0144 243.014 38.191 243.014 43.3105ZM184.092 34.0144V42.7716C184.765 37.7868 189.07 34.0144 194.182 34.0144H195.527V43.7147H195.392C189.204 43.8494 184.227 48.8343 184.227 55.0317V71.0641H174.676V34.0144H184.092Z" fill="#26293E"/>
<path fill-rule="evenodd" clip-rule="evenodd" d="M43.4718 0C54.9117 0 64.3328 9.43478 64.3328 20.8913C64.3328 32.3478 55.8538 40.8391 45.2214 41.6478C48.9899 37.2 51.1433 31.4043 51.1433 25.0696C51.1433 14.287 44.5485 4.98696 35.2619 1.07826C37.2808 0.53913 39.165 0.269565 41.3184 0H43.4718ZM80.6179 14.8261C82.9059 17.7913 84.2518 21.2957 84.2518 25.0696C84.1172 34.2348 76.7149 41.7826 67.563 41.7826H65.275C70.3893 36.3913 73.6194 28.9783 73.6194 20.8913C73.6194 15.6348 72.2735 10.6478 69.8509 6.33478C73.8886 8.62609 77.5224 11.4565 80.6179 14.8261ZM93 46.5C93 50.4087 92.4616 54.0478 91.6541 57.687C89.7699 53.1043 86.5398 49.1957 82.6368 46.3652C86.6744 43.5348 89.7699 39.6261 91.6541 35.1783C92.4616 38.8174 93 42.5913 93 46.5ZM42.3951 93H43.4718C54.9117 93 64.3328 83.5652 64.4674 72.1087C64.4674 61.1913 55.9884 52.2957 45.356 51.3522C48.9899 55.8 51.1433 61.5956 51.1433 67.7957C51.1433 78.5783 44.5485 87.8783 35.1273 91.787C37.4153 92.3261 39.8379 92.7304 42.3951 93ZM25.0333 84.2391C34.1852 84.2391 41.5876 76.8261 41.5876 67.6609C41.5876 58.6304 34.1852 51.2174 25.1679 51.2174H0C1.0767 62.1348 6.05644 71.9739 13.3242 79.387C16.4197 82.487 20.5919 84.2391 25.0333 84.2391ZM14.67 12.4C17.631 9.97391 21.2648 8.62609 25.1679 8.62609C34.3198 8.62609 41.7221 16.0391 41.7221 25.2043C41.7221 34.3696 34.1852 41.7826 25.1679 41.7826H0C1.21129 30.1913 6.59479 19.813 14.67 12.4ZM73.754 72.1087C73.754 77.3652 72.4081 82.3522 69.9855 86.6652C73.6194 84.5087 76.8495 81.9478 79.8104 78.9826C82.6368 75.8826 84.1172 71.9739 84.1172 67.7957C84.1172 58.6304 76.7149 51.2174 67.563 51.2174H65.275C70.5239 56.6087 73.754 64.0217 73.754 72.1087Z" fill="#5ACDDA"/>
</svg>
