<svg width="519" height="93" viewBox="0 0 519 93" fill="none" xmlns="http://www.w3.org/2000/svg">
<path fill-rule="evenodd" clip-rule="evenodd" d="M161.223 43.9842C161.4 43.866 161.551 43.7997 161.688 43.7397C161.863 43.6629 162.014 43.5966 162.165 43.4453C167.277 38.4604 167.815 30.3769 163.375 24.8531C160.416 21.0808 156.38 19.1946 151.806 19.0599C147.227 18.97 142.589 19.0001 137.97 19.03C135.668 19.045 133.371 19.0599 131.089 19.0599C130.968 19.0599 130.848 19.0871 130.714 19.1171C130.551 19.1538 130.37 19.1946 130.148 19.1946V40.0771C125.036 40.0771 121 44.1189 121 49.2385H130.148V71.0641H152.075C153.69 71.0641 155.304 70.7946 156.784 70.3904C167.546 67.5612 170.505 56.7831 166.739 49.3732C165.528 47.2176 163.779 45.4661 161.223 43.9842ZM140.372 28.7601C141.637 28.7601 142.888 28.7297 144.128 28.6995H144.128H144.128H144.128H144.128H144.128H144.128H144.128C146.579 28.6399 148.991 28.5812 151.403 28.7601C154.497 29.0296 156.111 31.3199 155.977 34.5534C155.977 37.3826 154.093 39.6729 151.268 39.9424C148.847 40.122 146.425 40.0621 144.004 40.0023C142.793 39.9723 141.582 39.9424 140.372 39.9424V28.7601ZM140.372 61.4985H151.941C155.573 61.4985 158.129 59.0735 158.129 55.3011C158.129 51.6635 155.708 49.2385 151.941 49.2385H141.448C141.246 49.2385 141.078 49.2721 140.91 49.3058L140.91 49.3058C140.742 49.3395 140.573 49.3732 140.372 49.3732V61.4985ZM301.936 44.3883C304.761 37.1131 310.681 33.3408 318.483 32.9366C329.111 32.3977 337.182 39.134 338.527 49.5079C338.706 50.9402 338.647 52.432 338.588 53.9438C338.558 54.7072 338.527 55.4757 338.527 56.2442H310.277C311.084 59.3429 312.967 61.3638 315.793 62.4416C319.425 63.7889 325.209 64.0583 329.111 59.6124C329.96 60.1051 330.795 60.5978 331.63 61.0905L331.631 61.0911L331.632 61.0918L331.633 61.0924L331.634 61.0931L331.635 61.0937L331.637 61.0943C333.311 62.0823 334.985 63.0703 336.778 64.0583C335.702 65.8097 334.222 67.157 332.608 68.3695C329.245 70.9293 325.344 71.8724 321.174 72.0071C314.851 72.1419 309.066 70.3904 304.896 65.4056C299.65 59.0735 298.977 51.7983 301.936 44.3883ZM319.694 41.5591C314.851 41.5591 310.815 44.7925 310.412 48.969H328.976C328.572 44.6578 324.537 41.5591 319.694 41.5591ZM285.793 33.745C291.443 35.4964 294.269 39.9424 294.807 45.7356C295.129 48.9648 295.108 52.1939 295.087 55.4918C295.081 56.3217 295.076 57.156 295.076 57.9956V71.1988H285.39V49.3732C285.39 47.0829 284.717 44.9272 282.834 43.4453C278.798 40.0771 271.937 42.2327 270.458 47.3523C270.054 48.5648 269.919 49.9121 269.919 51.2594V71.1988H260.368V34.0144H269.919V37.652H270.323C274.628 32.6672 280.009 31.9936 285.793 33.745ZM225.526 35.6312V53.1455C225.526 54.4928 225.526 55.7053 225.257 57.0526C224.181 62.5763 217.589 65.1361 213.015 61.9027C210.863 60.4207 210.19 58.1304 210.056 55.7053V34.0144H200.639C200.639 34.237 200.598 34.4186 200.562 34.5819L200.561 34.582C200.532 34.7154 200.504 34.8364 200.504 34.9575C200.504 36.9068 200.496 38.8645 200.488 40.8264V40.8268C200.462 46.7293 200.437 52.6699 200.639 58.5345C201.043 67.8306 208.172 73.4891 217.858 71.8724C220.952 71.3335 223.374 69.8515 225.661 67.0223V71.0641H235.212V34.0144H225.661L225.526 35.6312ZM359.513 33.745C367.988 30.9158 378.481 34.6881 378.885 46.9481C379.101 53.1111 378.97 59.3608 378.841 65.558C378.809 67.0829 378.777 68.6046 378.75 70.121V71.0641H369.334V50.0468C369.334 48.6996 369.065 47.2176 368.661 46.005C367.45 42.9064 364.76 41.5591 360.858 41.8285C357.495 42.098 354.939 44.1189 354.132 47.487C353.863 48.969 353.729 50.451 353.729 51.933V71.1988H344.312V34.0144H353.729V38.0562C355.477 35.9006 357.226 34.5534 359.513 33.745ZM243.014 43.3105V71.0641H252.431V34.0144C247.319 34.0144 243.014 38.191 243.014 43.3105ZM184.092 34.0144V42.7716C184.765 37.7868 189.07 34.0144 194.182 34.0144H195.527V43.7147H195.392C189.204 43.8494 184.227 48.8343 184.227 55.0317V71.0641H174.676V34.0144H184.092Z" fill="#F9F9F9"/>
<path fill-rule="evenodd" clip-rule="evenodd" d="M43.4718 0C54.9117 0 64.3328 9.43478 64.3328 20.8913C64.3328 32.3478 55.8538 40.8391 45.2214 41.6478C48.9899 37.2 51.1433 31.4043 51.1433 25.0696C51.1433 14.287 44.5485 4.98696 35.2619 1.07826C37.2808 0.53913 39.165 0.269565 41.3184 0H43.4718ZM80.6179 14.8261C82.9059 17.7913 84.2518 21.2957 84.2518 25.0696C84.1172 34.2348 76.7149 41.7826 67.563 41.7826H65.275C70.3893 36.3913 73.6194 28.9783 73.6194 20.8913C73.6194 15.6348 72.2735 10.6478 69.8509 6.33478C73.8886 8.62609 77.5224 11.4565 80.6179 14.8261ZM93 46.5C93 50.4087 92.4616 54.0478 91.6541 57.687C89.7699 53.1043 86.5398 49.1957 82.6368 46.3652C86.6744 43.5348 89.7699 39.6261 91.6541 35.1783C92.4616 38.8174 93 42.5913 93 46.5ZM42.3951 93H43.4718C54.9117 93 64.3328 83.5652 64.4674 72.1087C64.4674 61.1913 55.9884 52.2957 45.356 51.3522C48.9899 55.8 51.1433 61.5956 51.1433 67.7957C51.1433 78.5783 44.5485 87.8783 35.1273 91.787C37.4153 92.3261 39.8379 92.7304 42.3951 93ZM25.0333 84.2391C34.1852 84.2391 41.5876 76.8261 41.5876 67.6609C41.5876 58.6304 34.1852 51.2174 25.1679 51.2174H0C1.0767 62.1348 6.05644 71.9739 13.3242 79.387C16.4197 82.487 20.5919 84.2391 25.0333 84.2391ZM14.67 12.4C17.631 9.97391 21.2648 8.62609 25.1679 8.62609C34.3198 8.62609 41.7221 16.0391 41.7221 25.2043C41.7221 34.3696 34.1852 41.7826 25.1679 41.7826H0C1.21129 30.1913 6.59479 19.813 14.67 12.4ZM73.754 72.1087C73.754 77.3652 72.4081 82.3522 69.9855 86.6652C73.6194 84.5087 76.8495 81.9478 79.8104 78.9826C82.6368 75.8826 84.1172 71.9739 84.1172 67.7957C84.1172 58.6304 76.7149 51.2174 67.563 51.2174H65.275C70.5239 56.6087 73.754 64.0217 73.754 72.1087Z" fill="#5ACDDA"/>
<path d="M412.068 72.4439C409.997 72.4439 408.121 71.9112 406.44 70.8459C404.771 69.7687 403.445 68.1884 402.462 66.1051C401.492 64.0099 401.006 61.4413 401.006 58.3991C401.006 55.2741 401.509 52.6759 402.516 50.6044C403.522 48.5211 404.859 46.9645 406.528 45.9347C408.209 44.893 410.05 44.3722 412.05 44.3722C413.577 44.3722 414.85 44.6326 415.868 45.1534C416.898 45.6624 417.726 46.3016 418.354 47.071C418.993 47.8286 419.478 48.5743 419.81 49.3082H420.04V35.6364H427.587V72H420.129V67.6321H419.81C419.455 68.3897 418.951 69.1413 418.3 69.8871C417.661 70.621 416.827 71.2306 415.797 71.7159C414.779 72.2012 413.536 72.4439 412.068 72.4439ZM414.465 66.4247C415.684 66.4247 416.714 66.0933 417.555 65.4304C418.407 64.7557 419.058 63.8146 419.508 62.6072C419.969 61.3999 420.2 59.9853 420.2 58.3636C420.2 56.742 419.975 55.3333 419.526 54.1378C419.076 52.9422 418.425 52.0189 417.572 51.3679C416.72 50.7169 415.684 50.3913 414.465 50.3913C413.222 50.3913 412.175 50.7287 411.322 51.4034C410.47 52.0781 409.825 53.0133 409.387 54.2088C408.949 55.4044 408.73 56.7893 408.73 58.3636C408.73 59.9498 408.949 61.3525 409.387 62.5717C409.837 63.7791 410.482 64.7261 411.322 65.4126C412.175 66.0874 413.222 66.4247 414.465 66.4247ZM446.128 72.5327C443.37 72.5327 440.985 71.9467 438.972 70.7749C436.972 69.5911 435.427 67.9458 434.338 65.8388C433.249 63.7199 432.705 61.2637 432.705 58.4702C432.705 55.6529 433.249 53.1908 434.338 51.0838C435.427 48.965 436.972 47.3196 438.972 46.1477C440.985 44.964 443.37 44.3722 446.128 44.3722C448.886 44.3722 451.265 44.964 453.266 46.1477C455.278 47.3196 456.829 48.965 457.918 51.0838C459.007 53.1908 459.551 55.6529 459.551 58.4702C459.551 61.2637 459.007 63.7199 457.918 65.8388C456.829 67.9458 455.278 69.5911 453.266 70.7749C451.265 71.9467 448.886 72.5327 446.128 72.5327ZM446.164 66.6733C447.418 66.6733 448.466 66.3182 449.306 65.608C450.147 64.8859 450.78 63.9034 451.206 62.6605C451.644 61.4176 451.863 60.0031 451.863 58.4169C451.863 56.8307 451.644 55.4162 451.206 54.1733C450.78 52.9304 450.147 51.9479 449.306 51.2259C448.466 50.5038 447.418 50.1428 446.164 50.1428C444.897 50.1428 443.832 50.5038 442.968 51.2259C442.115 51.9479 441.47 52.9304 441.032 54.1733C440.606 55.4162 440.393 56.8307 440.393 58.4169C440.393 60.0031 440.606 61.4176 441.032 62.6605C441.47 63.9034 442.115 64.8859 442.968 65.608C443.832 66.3182 444.897 66.6733 446.164 66.6733ZM476.792 72.5327C473.999 72.5327 471.596 71.9408 469.583 70.7571C467.583 69.5616 466.044 67.9044 464.967 65.7855C463.901 63.6667 463.369 61.2282 463.369 58.4702C463.369 55.6766 463.907 53.2263 464.985 51.1193C466.074 49.0005 467.618 47.3492 469.619 46.1655C471.619 44.9699 473.999 44.3722 476.757 44.3722C479.136 44.3722 481.219 44.8042 483.007 45.6683C484.794 46.5324 486.209 47.7457 487.25 49.3082C488.292 50.8707 488.866 52.7055 488.972 54.8125H481.835C481.633 53.4512 481.101 52.3563 480.237 51.5277C479.384 50.6873 478.266 50.267 476.881 50.267C475.709 50.267 474.685 50.5866 473.809 51.2259C472.945 51.8532 472.27 52.7706 471.785 53.978C471.3 55.1854 471.057 56.6473 471.057 58.3636C471.057 60.1037 471.294 61.5833 471.767 62.8026C472.253 64.0218 472.933 64.951 473.809 65.5902C474.685 66.2294 475.709 66.549 476.881 66.549C477.745 66.549 478.52 66.3714 479.207 66.0163C479.905 65.6612 480.479 65.1463 480.929 64.4716C481.391 63.785 481.693 62.9624 481.835 62.0036H488.972C488.854 64.0869 488.286 65.9216 487.268 67.5078C486.262 69.0821 484.871 70.3132 483.095 71.201C481.32 72.0888 479.219 72.5327 476.792 72.5327ZM516.507 52.5043L509.582 52.9304C509.464 52.3385 509.21 51.8059 508.819 51.3324C508.428 50.8471 507.913 50.4624 507.274 50.1783C506.647 49.8823 505.895 49.7344 505.019 49.7344C503.847 49.7344 502.859 49.983 502.054 50.4801C501.249 50.9654 500.847 51.6165 500.847 52.4332C500.847 53.0843 501.107 53.6347 501.628 54.0845C502.149 54.5343 503.042 54.8954 504.309 55.1676L509.245 56.1619C511.897 56.7064 513.873 57.5824 515.175 58.7898C516.478 59.9972 517.129 61.5833 517.129 63.5483C517.129 65.3357 516.602 66.9041 515.548 68.2536C514.507 69.603 513.074 70.6565 511.251 71.4141C509.44 72.1598 507.351 72.5327 504.984 72.5327C501.373 72.5327 498.497 71.781 496.354 70.2777C494.224 68.7625 492.975 66.7029 492.608 64.0987L500.048 63.7081C500.272 64.8089 500.817 65.6494 501.681 66.2294C502.545 66.7976 503.652 67.0817 505.001 67.0817C506.327 67.0817 507.393 66.8272 508.197 66.3182C509.014 65.7973 509.429 65.1286 509.44 64.3118C509.429 63.6252 509.138 63.063 508.57 62.625C508.002 62.1752 507.126 61.8319 505.942 61.5952L501.219 60.6541C498.556 60.1214 496.573 59.1982 495.271 57.8842C493.981 56.5703 493.336 54.8954 493.336 52.8594C493.336 51.1075 493.809 49.5982 494.756 48.3317C495.715 47.0651 497.059 46.0885 498.787 45.402C500.527 44.7154 502.563 44.3722 504.895 44.3722C508.339 44.3722 511.05 45.1001 513.027 46.5561C515.016 48.0121 516.176 49.9948 516.507 52.5043Z" fill="#5ACDDA"/>
</svg>
