<svg width="204" height="204" viewBox="0 0 204 204" fill="none" xmlns="http://www.w3.org/2000/svg">
<path fill-rule="evenodd" clip-rule="evenodd" d="M95.3575 0C120.452 0 141.117 20.6957 141.117 45.8261C141.117 70.9565 122.518 89.5826 99.1954 91.3565C107.462 81.6 112.185 68.887 112.185 54.9913C112.185 31.3391 97.7192 10.9391 77.3488 2.36522C81.7771 1.18261 85.9103 0.591304 90.6339 0H95.3575ZM176.839 32.5217C181.858 39.0261 184.81 46.713 184.81 54.9913C184.515 75.0956 168.278 91.6522 148.203 91.6522H143.184C154.402 79.8261 161.488 63.5652 161.488 45.8261C161.488 34.2957 158.535 23.3565 153.221 13.8957C162.078 18.9217 170.049 25.1304 176.839 32.5217ZM204 102C204 110.574 202.819 118.557 201.048 126.539C196.915 116.487 189.829 107.913 181.268 101.704C190.124 95.4957 196.915 86.9217 201.048 77.1652C202.819 85.1478 204 93.4261 204 102ZM92.9957 204H95.3575C120.452 204 141.117 183.304 141.412 158.174C141.412 134.226 122.813 114.713 99.4906 112.643C107.462 122.4 112.185 135.113 112.185 148.713C112.185 172.365 97.7192 192.765 77.0535 201.339C82.0724 202.522 87.3864 203.409 92.9957 204ZM54.9117 184.783C74.987 184.783 91.2243 168.522 91.2243 148.417C91.2243 128.609 74.987 112.348 55.2069 112.348H0C2.36179 136.296 13.2851 157.878 29.2272 174.139C36.0174 180.939 45.1693 184.783 54.9117 184.783ZM32.1795 27.2C38.6744 21.8783 46.6454 18.9217 55.2069 18.9217C75.2822 18.9217 91.5195 35.1826 91.5195 55.287C91.5195 75.3913 74.987 91.6522 55.2069 91.6522H0C2.65702 66.2261 14.466 43.4609 32.1795 27.2ZM161.783 158.174C161.783 169.704 158.831 180.643 153.517 190.104C161.488 185.374 168.573 179.757 175.068 173.252C181.268 166.452 184.515 157.878 184.515 148.713C184.515 128.609 168.278 112.348 148.203 112.348H143.184C154.698 124.174 161.783 140.435 161.783 158.174Z" fill="#5ACDDA"/>
</svg>
