<svg width="186" height="39" viewBox="0 0 186 39" fill="none" xmlns="http://www.w3.org/2000/svg">
<path fill-rule="evenodd" clip-rule="evenodd" d="M28.8672 17.9994C28.9942 17.9142 29.1026 17.8664 29.2009 17.8232C29.3265 17.7679 29.4348 17.7201 29.5432 17.6111C33.212 14.0198 33.5981 8.19624 30.4116 4.21673C28.288 1.49905 25.3915 0.140178 22.1088 0.0431356C18.8225 -0.021631 15.494 5.41999e-05 12.179 0.0215951C10.5269 0.0324015 8.8784 0.0431356 7.24066 0.0431356C7.15382 0.0431356 7.0677 0.062731 6.97153 0.0843439C6.85455 0.110784 6.72464 0.140177 6.56532 0.140177L6.56532 15.1846C2.89655 15.1846 1.19283e-09 18.0964 1.43595e-09 21.7847L6.56532 21.7847L6.56532 37.5085L22.3018 37.5085C23.4609 37.5085 24.6192 37.3144 25.6814 37.0232C33.405 34.9849 35.5287 27.2201 32.8259 21.8818C31.9568 20.3288 30.7016 19.067 28.8672 17.9994ZM13.9029 7.03145C14.8107 7.03145 15.7085 7.00955 16.5985 6.98779C18.3575 6.94486 20.0885 6.90257 21.8196 7.03145C24.0401 7.22561 25.1984 8.87561 25.1022 11.2051C25.1022 13.2434 23.7501 14.8934 21.7227 15.0875C19.9852 15.2169 18.247 15.1738 16.5095 15.1307C15.6404 15.1091 14.7712 15.0875 13.9029 15.0875L13.9029 7.03145ZM13.9029 30.6172L22.2057 30.6172C24.8123 30.6172 26.6467 28.8701 26.6467 26.1524C26.6467 23.5318 24.9092 21.7847 22.2057 21.7847L14.6751 21.7847C14.5301 21.7847 14.4095 21.8089 14.289 21.8332C14.1684 21.8575 14.0471 21.8818 13.9029 21.8818L13.9029 30.6172ZM129.854 18.2905C131.881 13.0492 136.13 10.3315 141.729 10.0403C149.357 9.65209 155.149 14.5051 156.114 21.9788C156.243 23.0107 156.201 24.0854 156.158 25.1745C156.137 25.7245 156.114 26.2782 156.114 26.8318L135.84 26.8318C136.419 29.0642 137.771 30.5201 139.799 31.2966C142.405 32.2673 146.556 32.4613 149.357 29.2584C149.966 29.6133 150.565 29.9683 151.165 30.3232L151.165 30.3237L151.166 30.3242L151.167 30.3246L151.167 30.3251L151.168 30.3256L151.17 30.326C152.371 31.0378 153.572 31.7496 154.859 32.4613C154.087 33.7231 153.025 34.6937 151.866 35.5673C149.453 37.4114 146.653 38.0909 143.661 38.1879C139.123 38.285 134.971 37.0232 131.978 33.432C128.213 28.8701 127.73 23.6289 129.854 18.2905ZM142.598 16.2522C139.123 16.2522 136.226 18.5817 135.937 21.5906L149.26 21.5906C148.97 18.4846 146.074 16.2522 142.598 16.2522ZM118.268 10.6227C122.323 11.8845 124.351 15.0875 124.737 19.2611C124.969 21.5875 124.954 23.9139 124.938 26.2898C124.934 26.8877 124.931 27.4887 124.931 28.0936L124.931 37.6056L117.979 37.6056L117.979 21.8818C117.979 20.2317 117.496 18.6787 116.145 17.6111C113.248 15.1846 108.324 16.7375 107.263 20.4258C106.973 21.2994 106.876 22.27 106.876 23.2406L106.876 37.6056L100.021 37.6056L100.021 10.8168L106.876 10.8168L106.876 13.4374L107.166 13.4374C110.255 9.84625 114.117 9.36096 118.268 10.6227ZM75.016 11.9816L75.016 24.5994C75.016 25.5701 75.016 26.4436 74.823 27.4142C74.0508 31.3937 69.3198 33.2378 66.0372 30.9084C64.4927 29.8407 64.0097 28.1907 63.9135 26.4436L63.9135 10.8168L57.1552 10.8168C57.1552 10.9772 57.1257 11.108 57.0999 11.2257C57.0791 11.3218 57.0583 11.409 57.0583 11.4962C57.0583 12.9006 57.0526 14.311 57.0468 15.7244C57.0281 19.9767 57.0102 24.2568 57.1552 28.4818C57.4451 35.179 62.5614 39.2556 69.5129 38.0908C71.7334 37.7026 73.4716 36.6349 75.1129 34.5967L75.1129 37.5085L81.9675 37.5085L81.9675 10.8168L75.1129 10.8168L75.016 11.9816ZM171.176 10.6227C177.258 8.58448 184.789 11.3022 185.078 20.1346C185.233 24.5746 185.139 29.0771 185.047 33.5418C185.024 34.6403 185.001 35.7366 184.982 36.8291L184.982 37.5085L178.224 37.5085L178.224 22.367C178.224 21.3965 178.031 20.3288 177.741 19.4552C176.872 17.2229 174.941 16.2522 172.141 16.4463C169.727 16.6405 167.893 18.0964 167.314 20.5229C167.121 21.5906 167.025 22.6582 167.025 23.7259L167.025 37.6056L160.266 37.6056L160.266 10.8168L167.025 10.8168L167.025 13.7286C168.279 12.1757 169.534 11.2051 171.176 10.6227ZM87.5668 17.514L87.5668 37.5085L94.3252 37.5085L94.3252 10.8168C90.6564 10.8168 87.5668 13.8258 87.5668 17.514ZM45.2797 10.8168L45.2797 17.1258C45.7627 13.5346 48.8524 10.8168 52.5211 10.8168L53.4864 10.8168L53.4864 17.8052L53.3895 17.8052C48.9485 17.9022 45.3766 21.4935 45.3766 25.9583L45.3766 37.5085L38.5221 37.5085L38.5221 10.8168L45.2797 10.8168Z" fill="#F9F9F9"/>
</svg>
