<svg width="203" height="51" viewBox="0 0 203 51" fill="none" xmlns="http://www.w3.org/2000/svg">
<g clip-path="url(#clip0_1_530)">
<path fill-rule="evenodd" clip-rule="evenodd" d="M86.4968 24.4889C86.5911 24.4256 86.6715 24.3901 86.7445 24.3579C86.8378 24.3168 86.9182 24.2813 86.9987 24.2002C89.7225 21.5293 90.0091 17.1982 87.6434 14.2386C86.0668 12.2174 83.9163 11.2068 81.4792 11.1346C79.0394 11.0865 76.5682 11.1026 74.1071 11.1186C72.8806 11.1266 71.6567 11.1346 70.4408 11.1346C70.3763 11.1346 70.3124 11.1492 70.241 11.1653C70.1541 11.1849 70.0577 11.2068 69.9394 11.2068L69.9394 22.3955C67.2156 22.3955 65.0652 24.5611 65.0652 27.3042L69.9394 27.3042L69.9394 38.9982L81.6225 38.9982C82.483 38.9982 83.343 38.8538 84.1316 38.6373C89.8658 37.1214 91.4424 31.3465 89.4358 27.3763C88.7906 26.2214 87.8587 25.2829 86.4968 24.4889ZM75.387 16.3319C76.061 16.3319 76.7275 16.3157 77.3882 16.2995C78.6942 16.2675 79.9793 16.2361 81.2645 16.3319C82.913 16.4763 83.773 17.7035 83.7016 19.436C83.7016 20.9518 82.6978 22.179 81.1926 22.3234C79.9026 22.4196 78.6121 22.3875 77.3222 22.3555C76.6769 22.3394 76.0317 22.3234 75.387 22.3234L75.387 16.3319ZM75.387 33.873L81.5511 33.873C83.4863 33.873 84.8482 32.5737 84.8482 30.5525C84.8482 28.6035 83.5583 27.3042 81.5511 27.3042L75.9603 27.3042C75.8526 27.3042 75.7631 27.3222 75.6736 27.3402C75.5841 27.3583 75.4941 27.3763 75.387 27.3763L75.387 33.873ZM161.471 24.7055C162.977 20.8074 166.131 18.7863 170.288 18.5697C175.951 18.281 180.251 21.8902 180.968 27.4485C181.063 28.2159 181.032 29.0152 181 29.8253C180.984 30.2343 180.968 30.646 180.968 31.0578L165.916 31.0578C166.346 32.7181 167.349 33.8009 168.855 34.3783C170.79 35.1002 173.872 35.2446 175.951 32.8625C176.403 33.1264 176.848 33.3904 177.293 33.6544L177.293 33.6547L177.294 33.6551L177.294 33.6554L177.295 33.6558L177.296 33.6561L177.297 33.6565C178.189 34.1858 179.08 34.7152 180.036 35.2445C179.463 36.1829 178.674 36.9048 177.814 37.5545C176.022 38.926 173.944 39.4313 171.722 39.5035C168.353 39.5757 165.27 38.6373 163.048 35.9664C160.253 32.5737 159.895 28.6757 161.471 24.7055ZM170.933 23.1896C168.353 23.1896 166.202 24.922 165.988 27.1598L175.879 27.1598C175.664 24.8499 173.514 23.1896 170.933 23.1896ZM152.87 19.0028C155.88 19.9412 157.386 22.3234 157.673 25.4273C157.844 27.1575 157.833 28.8877 157.822 30.6547C157.819 31.0993 157.816 31.5463 157.816 31.9962L157.816 39.0704L152.655 39.0704L152.655 27.3763C152.655 26.1492 152.297 24.9942 151.293 24.2002C149.143 22.3955 145.487 23.5505 144.699 26.2936C144.484 26.9432 144.412 27.6651 144.412 28.387L144.412 39.0704L139.323 39.0704L139.323 19.1472L144.412 19.1472L144.412 21.0962L144.627 21.0962C146.921 18.4253 149.788 18.0644 152.87 19.0028ZM120.759 20.0134L120.759 29.3975C120.759 30.1194 120.759 30.7691 120.615 31.4909C120.042 34.4505 116.53 35.822 114.093 34.0896C112.946 33.2955 112.587 32.0684 112.516 30.7691L112.516 19.1472L107.498 19.1472C107.498 19.2664 107.477 19.3637 107.457 19.4512C107.442 19.5227 107.426 19.5876 107.426 19.6525C107.426 20.6969 107.422 21.7458 107.418 22.797C107.404 25.9595 107.391 29.1427 107.498 32.2849C107.714 37.2657 111.512 40.2975 116.673 39.4313C118.322 39.1426 119.612 38.3485 120.831 36.8326L120.831 38.9982L125.92 38.9982L125.92 19.1472L120.831 19.1472L120.759 20.0134ZM192.149 19.0028C196.665 17.487 202.256 19.5081 202.471 26.077C202.586 29.3791 202.517 32.7277 202.448 36.0481C202.431 36.8651 202.414 37.6804 202.399 38.4929L202.399 38.9982L197.382 38.9982L197.382 27.7373C197.382 27.0154 197.239 26.2214 197.024 25.5717C196.378 23.9115 194.945 23.1896 192.866 23.3339C191.074 23.4783 189.712 24.5611 189.282 26.3657C189.139 27.1598 189.068 27.9538 189.068 28.7479L189.068 39.0704L184.05 39.0704L184.05 19.1472L189.068 19.1472L189.068 21.3127C189.999 20.1578 190.931 19.436 192.149 19.0028ZM130.077 24.128L130.077 38.9982L135.094 38.9982L135.094 19.1472C132.37 19.1472 130.077 21.385 130.077 24.128ZM98.6818 19.1472L98.6818 23.8392C99.0404 21.1684 101.334 19.1472 104.058 19.1472L104.775 19.1472L104.775 24.3445L104.703 24.3445C101.406 24.4167 98.7537 27.0876 98.7537 30.4081L98.7537 38.9982L93.6648 38.9982L93.6648 19.1472L98.6818 19.1472Z" fill="#F9F9F9"/>
<path fill-rule="evenodd" clip-rule="evenodd" d="M23.7554 0.922485C29.8508 0.922485 34.8705 5.9776 34.8705 12.1159C34.8705 18.2543 30.3527 22.8039 24.6876 23.2372C26.6955 20.8541 27.8429 17.7488 27.8429 14.3547C27.8429 8.57739 24.3291 3.59447 19.381 1.50021C20.4567 1.21135 21.4606 1.06692 22.608 0.922485L23.7554 0.922485ZM43.5475 8.86624C44.7666 10.455 45.4837 12.3326 45.4837 14.3547C45.412 19.2653 41.4679 23.3094 36.5916 23.3094L35.3725 23.3094C38.0975 20.4208 39.8186 16.4489 39.8186 12.1159C39.8186 9.29954 39.1015 6.62753 37.8107 4.31663C39.962 5.5443 41.8982 7.06082 43.5475 8.86624ZM50.1449 25.837C50.1449 27.9312 49.8581 29.881 49.4278 31.8309C48.4239 29.3755 46.7028 27.2813 44.6232 25.7647C46.7745 24.2482 48.4239 22.154 49.4278 19.7709C49.8581 21.7207 50.1449 23.7427 50.1449 25.837ZM23.1817 50.7514L23.7554 50.7514C29.8508 50.7514 34.8705 45.6963 34.9422 39.558C34.9422 33.7085 30.4245 28.9423 24.7593 28.4368C26.6955 30.8199 27.8429 33.9251 27.8429 37.2471C27.8429 43.0244 24.3291 48.0073 19.3093 50.1015C20.5284 50.3904 21.8192 50.607 23.1817 50.7514ZM13.931 46.0574C18.8073 46.0574 22.7514 42.0855 22.7514 37.1749C22.7514 32.3364 18.8073 28.3645 14.0027 28.3645L0.592773 28.3645C1.16646 34.214 3.81976 39.4858 7.69216 43.4577C9.3415 45.1186 11.5645 46.0574 13.931 46.0574ZM8.40923 7.56635C9.98691 6.26646 11.9231 5.5443 14.0027 5.5443C18.879 5.5443 22.8231 9.51616 22.8231 14.4268C22.8231 19.3376 18.8073 23.3094 14.0027 23.3094L0.592773 23.3094C1.23817 17.0988 4.1066 11.5382 8.40923 7.56635ZM39.8903 39.558C39.8903 42.3744 39.1732 45.0464 37.8824 47.3573C39.8186 46.2018 41.5396 44.8297 43.1173 43.241C44.6232 41.58 45.412 39.4858 45.412 37.2471C45.412 32.3364 41.4679 28.3645 36.5916 28.3645L35.3725 28.3645C38.1693 31.2532 39.8903 35.225 39.8903 39.558Z" fill="#5ACDDA"/>
</g>
<defs>
<clipPath id="clip0_1_530">
<rect width="201.938" height="49.829" fill="white" transform="translate(0.591309 0.922485)"/>
</clipPath>
</defs>
</svg>
