<svg width="624" height="153" viewBox="0 0 624 153" fill="none" xmlns="http://www.w3.org/2000/svg">
<path fill-rule="evenodd" clip-rule="evenodd" d="M265.444 72.361C265.735 72.1667 265.984 72.0575 266.209 71.9589C266.497 71.8325 266.745 71.7234 266.994 71.4745C275.411 63.2736 276.297 49.9748 268.988 40.8873C264.115 34.6813 257.47 31.5782 249.94 31.3566C242.401 31.2086 234.763 31.2582 227.159 31.3075C223.369 31.332 219.588 31.3566 215.831 31.3566C215.631 31.3566 215.432 31.4013 215.213 31.4507C214.945 31.511 214.646 31.5782 214.28 31.5782V65.9333C205.864 65.9333 199.219 72.5827 199.219 81.0052H214.28V116.912H250.383C253.04 116.912 255.698 116.469 258.135 115.804C275.854 111.149 280.726 93.4174 274.525 81.2269C272.531 77.6805 269.652 74.7991 265.444 72.361ZM237.298 47.2154L237.298 47.2154C241.334 47.1173 245.304 47.0207 249.275 47.3151C254.369 47.7584 257.027 51.5263 256.806 56.8458C256.806 61.5004 253.705 65.2684 249.054 65.7117C245.067 66.0072 241.08 65.9087 237.093 65.8102H237.093C235.1 65.7609 233.107 65.7117 231.113 65.7117V47.3151C233.197 47.3151 235.256 47.265 237.298 47.2154L237.298 47.2154ZM231.113 101.175H250.161C256.141 101.175 260.35 97.1854 260.35 90.9793C260.35 84.9948 256.363 81.0052 250.161 81.0052H232.885C232.553 81.0052 232.276 81.0606 231.999 81.116C231.722 81.1715 231.445 81.2269 231.113 81.2269V101.175ZM497.12 73.026C501.771 61.0571 511.516 54.851 524.363 54.1861C541.86 53.2995 555.149 64.3818 557.364 81.4485C557.659 83.8044 557.562 86.2581 557.464 88.7446V88.7449V88.7452V88.7454V88.7457V88.746V88.7462V88.7467V88.7471V88.7475V88.7479V88.7483V88.7487C557.414 90.0039 557.364 91.2673 557.364 92.5308H510.852C512.181 97.6286 515.282 100.953 519.933 102.727C525.913 104.943 535.437 105.386 541.86 98.0719C543.261 98.8836 544.638 99.6953 546.014 100.507L546.019 100.51L546.02 100.511C548.776 102.136 551.532 103.761 554.485 105.386C552.713 108.268 550.277 110.484 547.619 112.479C542.082 116.69 535.658 118.242 528.792 118.463C518.382 118.685 508.858 115.804 501.992 107.603C493.354 97.1854 492.247 85.2165 497.12 73.026ZM526.356 68.3714C518.382 68.3714 511.738 73.6909 511.073 80.5619H541.639C540.974 73.4693 534.329 68.3714 526.356 68.3714ZM470.541 55.516C479.844 58.3974 484.495 65.7117 485.381 75.2424C485.912 80.5551 485.877 85.8677 485.842 91.2934C485.833 92.6586 485.824 94.0309 485.824 95.4122V117.133H469.877V81.2269C469.877 77.4589 468.769 73.9126 465.668 71.4745C459.024 65.9333 447.728 69.4796 445.292 77.9022C444.627 79.897 444.406 82.1134 444.406 84.3299V117.133H428.68V55.9592H444.406V61.9437H445.07C452.158 53.7428 461.017 52.6346 470.541 55.516ZM371.315 58.619V87.4329C371.315 89.6494 371.315 91.6442 370.872 93.8607C369.1 102.948 358.247 107.159 350.716 101.84C347.173 99.4018 346.065 95.6338 345.844 91.6442V55.9592H330.34C330.34 56.3253 330.272 56.6242 330.212 56.8929C330.163 57.1123 330.118 57.3115 330.118 57.5108C330.118 60.7178 330.104 63.9386 330.09 67.1663V67.1669V67.1674V67.1679C330.049 76.8781 330.007 86.6509 330.34 96.2988C331.004 111.592 342.743 120.901 358.69 118.242C363.784 117.355 367.771 114.917 371.536 110.262V116.912H387.262V55.9592H371.536L371.315 58.619ZM591.916 55.516C605.87 50.8614 623.146 57.0675 623.81 77.2372C624.166 87.3756 623.951 97.6566 623.738 107.851V107.853V107.854C623.685 110.362 623.633 112.866 623.589 115.36V116.912H608.085V82.3351C608.085 80.1186 607.642 77.6805 606.977 75.6857C604.984 70.5879 600.554 68.3714 594.131 68.8147C588.594 69.258 584.386 72.5827 583.057 78.1238C582.614 80.5619 582.392 83 582.392 85.4381V117.133H566.888V55.9592H582.392V62.6086C585.272 59.0623 588.151 56.8458 591.916 55.516ZM400.108 71.2528V116.912H415.612V55.9592C407.196 55.9592 400.108 62.8303 400.108 71.2528ZM303.097 55.9592V70.3662C304.204 62.1653 311.292 55.9592 319.708 55.9592H321.923V71.9177H321.702C311.513 72.1394 303.318 80.3403 303.318 90.536V116.912H287.592V55.9592H303.097Z" fill="#26293E"/>
<path fill-rule="evenodd" clip-rule="evenodd" d="M71.5736 0C90.4087 0 105.92 15.5217 105.92 34.3696C105.92 53.2174 91.9599 67.187 74.4543 68.5174C80.6588 61.2 84.2042 51.6652 84.2042 41.2435C84.2042 23.5043 73.3463 8.20435 58.0566 1.77391C61.3804 0.886957 64.4827 0.443478 68.0281 0H71.5736ZM132.732 24.3913C136.499 29.2696 138.715 35.0348 138.715 41.2435C138.494 56.3217 126.306 68.7391 111.238 68.7391H107.471C115.892 59.8696 121.21 47.6739 121.21 34.3696C121.21 25.7217 118.994 17.5174 115.005 10.4217C121.653 14.1913 127.636 18.8478 132.732 24.3913ZM153.119 76.5C153.119 82.9304 152.232 88.9174 150.903 94.9043C147.801 87.3652 142.482 80.9348 136.056 76.2783C142.704 71.6217 147.801 65.1913 150.903 57.8739C152.232 63.8609 153.119 70.0696 153.119 76.5ZM69.8009 153H71.5736C90.4087 153 105.92 137.478 106.142 118.63C106.142 100.67 92.1815 86.0348 74.6758 84.4826C80.6588 91.8 84.2042 101.335 84.2042 111.535C84.2042 129.274 73.3463 144.574 57.835 151.004C61.602 151.891 65.5907 152.557 69.8009 153ZM41.2158 138.587C56.2839 138.587 68.4713 126.391 68.4713 111.313C68.4713 96.4565 56.2839 84.2609 41.4373 84.2609H0C1.77272 102.222 9.97155 118.409 21.9374 130.604C27.034 135.704 33.9033 138.587 41.2158 138.587ZM24.1533 20.4C29.0283 16.4087 35.0112 14.1913 41.4373 14.1913C56.5055 14.1913 68.6929 26.387 68.6929 41.4652C68.6929 56.5435 56.2839 68.7391 41.4373 68.7391H0C1.99431 49.6696 10.8579 32.5957 24.1533 20.4ZM121.431 118.63C121.431 127.278 119.215 135.483 115.227 142.578C121.21 139.03 126.528 134.817 131.403 129.939C136.056 124.839 138.494 118.409 138.494 111.535C138.494 96.4565 126.306 84.2609 111.238 84.2609H107.471C116.113 93.1304 121.431 105.326 121.431 118.63Z" fill="#5ACDDA"/>
</svg>
