<svg width="93" height="93" viewBox="0 0 93 93" fill="none" xmlns="http://www.w3.org/2000/svg">
<path fill-rule="evenodd" clip-rule="evenodd" d="M43.4718 0C54.9117 0 64.3328 9.43478 64.3328 20.8913C64.3328 32.3478 55.8538 40.8391 45.2214 41.6478C48.9899 37.2 51.1433 31.4043 51.1433 25.0696C51.1433 14.287 44.5485 4.98696 35.2619 1.07826C37.2808 0.53913 39.165 0.269565 41.3184 0H43.4718ZM80.6179 14.8261C82.9059 17.7913 84.2518 21.2957 84.2518 25.0696C84.1172 34.2348 76.7149 41.7826 67.563 41.7826H65.275C70.3893 36.3913 73.6194 28.9783 73.6194 20.8913C73.6194 15.6348 72.2735 10.6478 69.8509 6.33478C73.8886 8.62609 77.5224 11.4565 80.6179 14.8261ZM93 46.5C93 50.4087 92.4616 54.0478 91.6541 57.687C89.7699 53.1043 86.5398 49.1957 82.6368 46.3652C86.6744 43.5348 89.7699 39.6261 91.6541 35.1783C92.4616 38.8174 93 42.5913 93 46.5ZM42.3951 93H43.4718C54.9117 93 64.3328 83.5652 64.4674 72.1087C64.4674 61.1913 55.9884 52.2957 45.356 51.3522C48.9899 55.8 51.1433 61.5956 51.1433 67.7957C51.1433 78.5783 44.5485 87.8783 35.1273 91.787C37.4153 92.3261 39.8379 92.7304 42.3951 93ZM25.0333 84.2391C34.1852 84.2391 41.5876 76.8261 41.5876 67.6609C41.5876 58.6304 34.1852 51.2174 25.1679 51.2174H0C1.0767 62.1348 6.05644 71.9739 13.3242 79.387C16.4197 82.487 20.5919 84.2391 25.0333 84.2391ZM14.67 12.4C17.631 9.97391 21.2648 8.62609 25.1679 8.62609C34.3198 8.62609 41.7221 16.0391 41.7221 25.2043C41.7221 34.3696 34.1852 41.7826 25.1679 41.7826H0C1.21129 30.1913 6.59479 19.813 14.67 12.4ZM73.754 72.1087C73.754 77.3652 72.4081 82.3522 69.9855 86.6652C73.6194 84.5087 76.8495 81.9478 79.8104 78.9826C82.6368 75.8826 84.1172 71.9739 84.1172 67.7957C84.1172 58.6304 76.7149 51.2174 67.563 51.2174H65.275C70.5239 56.6087 73.754 64.0217 73.754 72.1087Z" fill="#5ACDDA"/>
</svg>
